<svg xmlns="http://www.w3.org/2000/svg" width="32" height="32" fill="none"><path fill="#F3481E" d="M15.994 31.988c8.833 0 15.994-7.161 15.994-15.994S24.827 0 15.994 0 0 7.16 0 15.994c0 8.833 7.16 15.994 15.994 15.994z"/><path fill="#fff" d="M22.6 16.292c3.427-.758 4.532-2.67 4.607-4.508.087-1.838-1.242-4.346-5.364-4.532-4.123-.186-6.073 3.887-6.073 3.887s-1.291-1.515-4.718-1.217c-3.954.338-5.135 2.671-5.488 4.042-.139.54.306.992.864.982l.95-.016c.553-.009 1.007-.487 1.263-.978.345-.66 1.145-1.431 3.007-1.522 3.315-.162 2.856 3.08 2.856 3.08s-2.397.459-5.067 1.08c-2.67.62-4.346 2.558-4.37 4.284-.025 1.726 1.452 4.83 5.687 4.694 4.234-.137 5.799-3.962 5.799-3.962s1.266 1.466 4.023 1.267c3.709-.258 5.162-2.504 5.706-3.865.217-.543-.196-1.07-.78-1.104l-.745-.044c-.507-.03-.963.331-1.212.775-.405.722-1.29 1.655-3.155 1.655-3.043 0-2.695-3.104-2.695-3.104s1.478-.15 4.905-.894zm-7.91 3.042c-.112 2.372-2.136 3.316-3.7 3.502-1.565.186-2.695-.782-2.832-1.701-.136-.92.621-1.938 2.099-2.347 1.478-.41 4.42-.969 4.42-.969s.05.845.013 1.515zm2.72-4.445s-.584-4.433 3.675-5.017c2.16-.298 2.968 1.217 2.993 1.912.025.696-.41 1.776-2.484 2.322-2.074.534-4.184.783-4.184.783z"/></svg>